<svg width="25" height="25" viewBox="0 0 25 25" fill="none" xmlns="http://www.w3.org/2000/svg">
<path d="M14.0625 6.64062V0H4.29688C3.64746 0 3.125 0.522461 3.125 1.17188V23.8281C3.125 24.4775 3.64746 25 4.29688 25H20.7031C21.3525 25 21.875 24.4775 21.875 23.8281V7.8125H15.2344C14.5898 7.8125 14.0625 7.28516 14.0625 6.64062ZM17.7954 16.9609L13.0874 21.6338C12.7627 21.9565 12.2383 21.9565 11.9136 21.6338L7.20557 16.9609C6.70996 16.4692 7.05762 15.625 7.75488 15.625H10.9375V11.7188C10.9375 11.2871 11.2871 10.9375 11.7188 10.9375H13.2812C13.7129 10.9375 14.0625 11.2871 14.0625 11.7188V15.625H17.2451C17.9424 15.625 18.29 16.4692 17.7954 16.9609ZM21.5332 5.12695L16.7529 0.341797C16.5332 0.12207 16.2354 0 15.9229 0H15.625V6.25H21.875V5.95215C21.875 5.64453 21.7529 5.34668 21.5332 5.12695Z" fill="#F5F5F0"/>
</svg>
