<svg width="65" height="61" viewBox="0 0 65 61" fill="none" xmlns="http://www.w3.org/2000/svg">
<path d="M10.8487 12.6364V49H3.16051V12.6364H10.8487Z" fill="#1F2937"/>
<path d="M57.4396 49.4616C56.2678 49.4616 55.2616 49.0473 54.4212 48.2188C53.5926 47.3783 53.1783 46.3722 53.1783 45.2003C53.1783 44.0402 53.5926 43.0459 54.4212 42.2173C55.2616 41.3887 56.2678 40.9744 57.4396 40.9744C58.576 40.9744 59.5703 41.3887 60.4226 42.2173C61.2749 43.0459 61.701 44.0402 61.701 45.2003C61.701 45.9815 61.4998 46.6977 61.0973 47.3487C60.7067 47.9879 60.1918 48.5028 59.5526 48.8935C58.9134 49.2723 58.209 49.4616 57.4396 49.4616Z" fill="#1F2937"/>
<mask id="path-3-inside-1_2034_10" fill="white">
<path d="M18.1605 49V12.6364H25.8487V28.6697H26.3281L39.4141 12.6364H48.6293L35.1349 28.9183L48.7891 49H39.5916L29.6307 34.0497L25.8487 38.6662V49H18.1605Z"/>
</mask>
<path d="M18.1605 49H16.1605V51H18.1605V49ZM18.1605 12.6364V10.6364H16.1605V12.6364H18.1605ZM25.8487 12.6364H27.8487V10.6364H25.8487V12.6364ZM25.8487 28.6697H23.8487V30.6697H25.8487V28.6697ZM26.3281 28.6697V30.6697H27.2774L27.8776 29.9343L26.3281 28.6697ZM39.4141 12.6364V10.6364H38.4648L37.8646 11.3718L39.4141 12.6364ZM48.6293 12.6364L50.1691 13.9126L52.8844 10.6364H48.6293V12.6364ZM35.1349 28.9183L33.5951 27.6421L32.6357 28.7996L33.481 30.0429L35.1349 28.9183ZM48.7891 49V51H52.5674L50.443 47.8755L48.7891 49ZM39.5916 49L37.9272 50.1089L38.5209 51H39.5916V49ZM29.6307 34.0497L31.2951 32.9408L29.7964 30.6914L28.0836 32.7823L29.6307 34.0497ZM25.8487 38.6662L24.3016 37.3987L23.8487 37.9516V38.6662H25.8487ZM25.8487 49V51H27.8487V49H25.8487ZM18.1605 49H20.1605V12.6364H18.1605H16.1605V49H18.1605ZM18.1605 12.6364V14.6364H25.8487V12.6364V10.6364H18.1605V12.6364ZM25.8487 12.6364H23.8487V28.6697H25.8487H27.8487V12.6364H25.8487ZM25.8487 28.6697V30.6697H26.3281V28.6697V26.6697H25.8487V28.6697ZM26.3281 28.6697L27.8776 29.9343L40.9635 13.901L39.4141 12.6364L37.8646 11.3718L24.7787 27.4051L26.3281 28.6697ZM39.4141 12.6364V14.6364H48.6293V12.6364V10.6364H39.4141V12.6364ZM48.6293 12.6364L47.0894 11.3601L33.5951 27.6421L35.1349 28.9183L36.6748 30.1946L50.1691 13.9126L48.6293 12.6364ZM35.1349 28.9183L33.481 30.0429L47.1352 50.1245L48.7891 49L50.443 47.8755L36.7889 27.7938L35.1349 28.9183ZM48.7891 49V47H39.5916V49V51H48.7891V49ZM39.5916 49L41.256 47.8911L31.2951 32.9408L29.6307 34.0497L27.9663 35.1587L37.9272 50.1089L39.5916 49ZM29.6307 34.0497L28.0836 32.7823L24.3016 37.3987L25.8487 38.6662L27.3958 39.9336L31.1778 35.3172L29.6307 34.0497ZM25.8487 38.6662H23.8487V49H25.8487H27.8487V38.6662H25.8487ZM25.8487 49V47H18.1605V49V51H25.8487V49Z" fill="#1F2937" mask="url(#path-3-inside-1_2034_10)"/>
</svg>
